<svg xmlns="http://www.w3.org/2000/svg" xmlns:xlink="http://www.w3.org/1999/xlink" width="24" height="24" viewBox="0 0 24 24"><defs><path id="ybr6a" d="M942.58 5770.43l4.77-4.77a.74.74 0 0 1 1.05 1.04l-4.26 4.26 4.26 4.25a.74.74 0 0 1-1.05 1.04l-4.77-4.77a.73.73 0 0 1-.21-.52c0-.2.07-.38.21-.53zm3.4-10.4a10.98 10.98 0 1 1 0 21.97 10.98 10.98 0 0 1 0-21.97zm0 20.5a9.52 9.52 0 1 0-9.51-9.51 9.53 9.53 0 0 0 9.52 9.5z"/></defs><g><g transform="translate(-934 -5759)"><use xlink:href="#ybr6a"/><use fill="#d1d1d1" xlink:href="#ybr6a"/></g></g></svg>